<svg width="346" height="85" viewBox="0 0 346 85" fill="none" xmlns="http://www.w3.org/2000/svg">
<path d="M80.805 0.226744H58.705L53.205 24.1267H32.505L38.005 0.226744H15.905L0.504962 67.2267H22.605L28.205 42.7267H48.905L43.305 67.2267H65.405L80.805 0.226744ZM157.978 0.226744H131.578L113.178 25.2267L106.178 0.226744H84.3776L98.2776 47.1267L93.5776 67.2267H116.778L121.478 47.1267L157.978 0.226744ZM161.51 0.226744L146.11 67.2267H168.21L172.31 49.5267H184.61C194.21 49.5267 202.01 46.7267 208.21 41.0267C214.41 35.3267 217.51 28.3267 217.51 20.1267C217.51 13.9267 215.41 9.02674 211.31 5.52674C207.21 2.02674 201.81 0.226744 195.01 0.226744H161.51ZM176.11 32.8267L179.51 17.9267H189.41C191.11 17.9267 192.51 18.5267 193.61 19.6267C194.61 20.7267 195.21 22.1267 195.21 23.8267C195.21 26.4267 194.11 28.5267 192.01 30.2267C189.91 32.0267 187.51 32.8267 184.91 32.8267H176.11ZM245.719 18.3267H277.719L281.919 0.226744H227.819L212.319 67.2267H266.919L271.119 49.1267H238.619L240.319 41.7267H269.619L273.319 25.7267H244.019L245.719 18.3267ZM345.759 19.8267C345.759 13.8267 343.759 9.02674 339.759 5.52674C335.759 2.02674 330.159 0.226744 323.159 0.226744H288.659L273.259 67.2267H295.359L299.959 47.4267H304.059L315.159 67.2267H339.559L326.659 45.1267C332.459 43.0267 337.059 39.7267 340.559 35.2267C343.959 30.7267 345.759 25.6267 345.759 19.8267ZM303.759 30.7267L306.659 17.9267H316.759C321.159 17.9267 323.459 19.7267 323.459 23.1267C323.459 25.3267 322.559 27.1267 320.759 28.5267C318.959 30.0267 316.559 30.7267 313.759 30.7267H303.759Z" fill="black"/>
<rect y="72.6282" width="346" height="6" fill="black"/>
</svg>
